<svg xmlns="http://www.w3.org/2000/svg" width="5" height="17" viewBox="0 0 5 17">
  <path fill="#a4a2a9" d="M2303.99,1659.99h2v2h-2v-2Zm3,0h2v2h-2v-2Zm-3,3h2v2h-2v-2Zm3,0h2v2h-2v-2Zm-3,3h2v2h-2v-2Zm3,0h2v2h-2v-2Zm-3,3h2v2h-2v-2Zm3,0h2v2h-2v-2Zm-3-6h2v2h-2v-2Zm3,0h2v2h-2v-2Zm-3,3h2v2h-2v-2Zm3,0h2v2h-2v-2Zm-3,3h2v2h-2v-2Zm3,0h2v2h-2v-2Zm-3,3h2v2h-2v-2Zm3,0h2v2h-2v-2Zm-3-9h2v2h-2v-2Zm3,0h2v2h-2v-2Zm-3,3h2v2h-2v-2Zm3,0h2v2h-2v-2Zm-3,3h2v2h-2v-2Zm3,0h2v2h-2v-2Zm-3,3h2v2h-2v-2Zm3,0h2v2h-2v-2Zm-3-6h2v2h-2v-2Zm3,0h2v2h-2v-2Zm-3,3h2v2h-2v-2Zm3,0h2v2h-2v-2Zm-3,3h2v2h-2v-2Zm3,0h2v2h-2v-2Zm-3,3h2v2h-2v-2Zm3,0h2v2h-2v-2Z" transform="translate(-2304 -1660)"/>
</svg>
