<svg width="0" height="0">
	<symbol xmlns="http://www.w3.org/2000/svg" id="dots" viewBox="0 0 20 20">
		<path d="M10 6c.82 0 1.5-.68 1.5-1.5S10.82 3 10 3s-1.5.67-1.5 1.5S9.18 6 10 6zm0 5.5c.82 0 1.5-.68 1.5-1.5s-.68-1.5-1.5-1.5-1.5.68-1.5 1.5.68 1.5 1.5 1.5zm0 5.5c.82 0 1.5-.67 1.5-1.5 0-.82-.68-1.5-1.5-1.5s-1.5.68-1.5 1.5c0 .83.68 1.5 1.5 1.5z"/>
	</symbol>

	<symbol xmlns="http://www.w3.org/2000/svg" id="arrow1" viewBox="0 0 16 15">
		<path d="M15 8.36426C15.5523 8.36426 16 7.91654 16 7.36426C16 6.81197 15.5523 6.36426 15 6.36426V7.36426V8.36426ZM0.292893 6.65715C-0.0976311 7.04768 -0.0976311 7.68084 0.292893 8.07136L6.65685 14.4353C7.04738 14.8258 7.68054 14.8258 8.07107 14.4353C8.46159 14.0448 8.46159 13.4116 8.07107 13.0211L2.41421 7.36426L8.07107 1.7074C8.46159 1.31688 8.46159 0.683714 8.07107 0.29319C7.68054 -0.0973343 7.04738 -0.0973343 6.65685 0.29319L0.292893 6.65715ZM15 7.36426V6.36426L1 6.36426V7.36426V8.36426L15 8.36426V7.36426Z"/>
	</symbol>
</svg>