<svg width="0" height="0">
	<symbol xmlns="http://www.w3.org/2000/svg" id="dots" viewBox="0 0 20 20">
		<path d="M10 6c.82 0 1.5-.68 1.5-1.5S10.82 3 10 3s-1.5.67-1.5 1.5S9.18 6 10 6zm0 5.5c.82 0 1.5-.68 1.5-1.5s-.68-1.5-1.5-1.5-1.5.68-1.5 1.5.68 1.5 1.5 1.5zm0 5.5c.82 0 1.5-.67 1.5-1.5 0-.82-.68-1.5-1.5-1.5s-1.5.68-1.5 1.5c0 .83.68 1.5 1.5 1.5z"/>
	</symbol>

	<symbol xmlns="http://www.w3.org/2000/svg" id="arrow1" viewBox="0 0 16 15">
		<path d="M15 8.36426C15.5523 8.36426 16 7.91654 16 7.36426C16 6.81197 15.5523 6.36426 15 6.36426V7.36426V8.36426ZM0.292893 6.65715C-0.0976311 7.04768 -0.0976311 7.68084 0.292893 8.07136L6.65685 14.4353C7.04738 14.8258 7.68054 14.8258 8.07107 14.4353C8.46159 14.0448 8.46159 13.4116 8.07107 13.0211L2.41421 7.36426L8.07107 1.7074C8.46159 1.31688 8.46159 0.683714 8.07107 0.29319C7.68054 -0.0973343 7.04738 -0.0973343 6.65685 0.29319L0.292893 6.65715ZM15 7.36426V6.36426L1 6.36426V7.36426V8.36426L15 8.36426V7.36426Z"/>
	</symbol>

	<symbol xmlns="http://www.w3.org/2000/svg" id="def" viewBox="0 0 32 32">
		<rect width="32" height="32"/>
	</symbol>

	<symbol xmlns="http://www.w3.org/2000/svg" id="close" viewBox="0 0 16 16">
		<path d="M0.500797 0.500185L15.5 15.5M15.4992 0.5L0.5 15.4998" stroke-linecap="round"/>
	</symbol>

	<symbol xmlns="http://www.w3.org/2000/svg" id="csv" viewBox="0 0 548.29 548.291">
		<path d="M486.2,196.121h-13.164V132.59c0-0.399-0.064-0.795-0.116-1.2c-0.021-2.52-0.824-5-2.551-6.96L364.656,3.677
		c-0.031-0.034-0.064-0.044-0.085-0.075c-0.629-0.707-1.364-1.292-2.141-1.796c-0.231-0.157-0.462-0.286-0.704-0.419
		c-0.672-0.365-1.386-0.672-2.121-0.893c-0.199-0.052-0.377-0.134-0.576-0.188C358.229,0.118,357.4,0,356.562,0H96.757
		C84.893,0,75.256,9.649,75.256,21.502v174.613H62.093c-16.972,0-30.733,13.756-30.733,30.73v159.81
		c0,16.966,13.761,30.736,30.733,30.736h13.163V526.79c0,11.854,9.637,21.501,21.501,21.501h354.777
		c11.853,0,21.502-9.647,21.502-21.501V417.392H486.2c16.966,0,30.729-13.764,30.729-30.731v-159.81
		C516.93,209.872,503.166,196.121,486.2,196.121z M96.757,21.502h249.053v110.006c0,5.94,4.818,10.751,10.751,10.751h94.973v53.861
		H96.757V21.502z M258.618,313.18c-26.68-9.291-44.063-24.053-44.063-47.389c0-27.404,22.861-48.368,60.733-48.368
		c18.107,0,31.447,3.811,40.968,8.107l-8.09,29.3c-6.43-3.107-17.862-7.632-33.59-7.632c-15.717,0-23.339,7.149-23.339,15.485
		c0,10.247,9.047,14.769,29.78,22.632c28.341,10.479,41.681,25.239,41.681,47.874c0,26.909-20.721,49.786-64.792,49.786
		c-18.338,0-36.449-4.776-45.497-9.77l7.38-30.016c9.772,5.014,24.775,10.006,40.264,10.006c16.671,0,25.488-6.908,25.488-17.396
		C285.536,325.789,277.909,320.078,258.618,313.18z M69.474,302.692c0-54.781,39.074-85.269,87.654-85.269
		c18.822,0,33.113,3.811,39.549,7.149l-7.392,28.816c-7.38-3.084-17.632-5.939-30.491-5.939c-28.822,0-51.206,17.375-51.206,53.099
		c0,32.158,19.051,52.4,51.456,52.4c10.947,0,23.097-2.378,30.241-5.238l5.483,28.346c-6.672,3.34-21.674,6.919-41.208,6.919
		C98.06,382.976,69.474,348.424,69.474,302.692z M451.534,520.962H96.757v-103.57h354.777V520.962z M427.518,380.583h-42.399
		l-51.45-160.536h39.787l19.526,67.894c5.479,19.046,10.479,37.386,14.299,57.397h0.709c4.048-19.298,9.045-38.352,14.526-56.693
		l20.487-68.598h38.599L427.518,380.583z" stroke="none"/>
	</symbol>

	<symbol xmlns="http://www.w3.org/2000/svg" id="settings" viewBox="0 0 24 24">
		<path d="M12.94 22h-1.89a1.68 1.68 0 0 1-1.68-1.68v-1.09a.34.34 0 0 0-.22-.29.38.38 0 0 0-.41 0l-.74.8a1.67 1.67 0 0 1-2.37 0L4.26 18.4a1.66 1.66 0 0 1-.5-1.19 1.72 1.72 0 0 1 .5-1.21l.74-.74a.34.34 0 0 0 0-.37c-.06-.15-.16-.26-.3-.26H3.68A1.69 1.69 0 0 1 2 12.94v-1.89a1.68 1.68 0 0 1 1.68-1.68h1.09a.34.34 0 0 0 .29-.22.38.38 0 0 0 0-.41L4.26 8a1.67 1.67 0 0 1 0-2.37L5.6 4.26a1.65 1.65 0 0 1 1.18-.5 1.72 1.72 0 0 1 1.22.5l.74.74a.34.34 0 0 0 .37 0c.15-.06.26-.16.26-.3V3.68A1.69 1.69 0 0 1 11.06 2H13a1.68 1.68 0 0 1 1.68 1.68v1.09a.34.34 0 0 0 .22.29.38.38 0 0 0 .41 0l.69-.8a1.67 1.67 0 0 1 2.37 0l1.37 1.34a1.67 1.67 0 0 1 .5 1.19 1.63 1.63 0 0 1-.5 1.21l-.74.74a.34.34 0 0 0 0 .37c.06.15.16.26.3.26h1.09A1.69 1.69 0 0 1 22 11.06V13a1.68 1.68 0 0 1-1.68 1.68h-1.09a.34.34 0 0 0-.29.22.34.34 0 0 0 0 .37l.77.77a1.67 1.67 0 0 1 0 2.37l-1.31 1.33a1.65 1.65 0 0 1-1.18.5 1.72 1.72 0 0 1-1.19-.5l-.77-.74a.34.34 0 0 0-.37 0c-.15.06-.26.16-.26.3v1.09A1.69 1.69 0 0 1 12.94 22zm-1.57-2h1.26v-.77a2.33 2.33 0 0 1 1.46-2.14 2.36 2.36 0 0 1 2.59.47l.54.54.88-.88-.54-.55a2.34 2.34 0 0 1-.48-2.56 2.33 2.33 0 0 1 2.14-1.45H20v-1.29h-.77a2.33 2.33 0 0 1-2.14-1.46 2.36 2.36 0 0 1 .47-2.59l.54-.54-.88-.88-.55.54a2.39 2.39 0 0 1-4-1.67V4h-1.3v.77a2.33 2.33 0 0 1-1.46 2.14 2.36 2.36 0 0 1-2.59-.47l-.54-.54-.88.88.54.55a2.39 2.39 0 0 1-1.67 4H4v1.26h.77a2.33 2.33 0 0 1 2.14 1.46 2.36 2.36 0 0 1-.47 2.59l-.54.54.88.88.55-.54a2.39 2.39 0 0 1 4 1.67z" stroke="none"/>
		<path d="M12 15.5a3.5 3.5 0 1 1 3.5-3.5 3.5 3.5 0 0 1-3.5 3.5zm0-5a1.5 1.5 0 1 0 1.5 1.5 1.5 1.5 0 0 0-1.5-1.5z" stroke="none"/>
	</symbol>
</svg>